<svg xmlns="http://www.w3.org/2000/svg" width="118" height="118" viewBox="0 0 118 118">
  <g id="fast-internet-speed" transform="translate(-120 396)">
    <path id="Path_106" data-name="Path 106" d="M7.951,0h102.1A8.206,8.206,0,0,1,118,8.409v83.9a8.216,8.216,0,0,1-7.951,8.4h-8.422a52.554,52.554,0,0,0,3.015-7.922h4.513a2.126,2.126,0,0,0,1.556-.68,2.319,2.319,0,0,0,.643-1.645V20.911H6.943V90.46A2.4,2.4,0,0,0,7.586,92.1a2.1,2.1,0,0,0,1.556.68h4.216a51.544,51.544,0,0,0,3.015,7.922H7.951A8.216,8.216,0,0,1,0,92.308V8.409A8.2,8.2,0,0,1,7.951,0ZM78.936,29.656c-2.237,28.3-32.871,9.7-44.509,33.281A45.829,45.829,0,0,0,31.161,73.6a29.409,29.409,0,0,0-2.353,3.6,28.518,28.518,0,0,0-2.564,20.647,26.974,26.974,0,0,0,11.994,16.514,24.438,24.438,0,0,0,19.523,2.712,25.818,25.818,0,0,0,15.614-12.675,28.169,28.169,0,0,0,3.092-9.019,27.232,27.232,0,0,0,9.257-9.557c4.139-10.156-3.4-18.25,6.924-25.4-6.386-3.392-10.265.112-13.991,6.977-4.033,9.252-19.139-1.706-4.974-7.4,12.148-4.865,11.034-19.946,5.253-30.336ZM50.54,90.724a1.751,1.751,0,0,1,.23.01l8.863-7.018a2.245,2.245,0,0,1,3.255.487,2.569,2.569,0,0,1-.461,3.453l-8.767,6.957a3.148,3.148,0,0,1-6.271-.538,4.048,4.048,0,0,1,.144-1.016l-9.027-7.373a1.429,1.429,0,0,1-.23-1.93A1.247,1.247,0,0,1,40.1,83.5l9.18,7.505a2.906,2.906,0,0,1,1.258-.284Zm11.514-20c10.918,6.662,14.337,20.129,8.028,31.687s-19.042,15.163-29.961,8.5S25.793,90.774,32.093,79.227s19.042-15.163,29.961-8.5ZM102.482,6.8a4.044,4.044,0,0,1,3.928,4.154,3.934,3.934,0,1,1-7.855,0A4.038,4.038,0,0,1,102.482,6.8Zm-26.61,0A4.044,4.044,0,0,1,79.8,10.958a3.934,3.934,0,1,1-7.855,0A4.032,4.032,0,0,1,75.872,6.8Zm13.3,0A4.044,4.044,0,0,1,93.1,10.958a3.934,3.934,0,1,1-7.855,0A4.05,4.05,0,0,1,89.172,6.8Z" transform="translate(120 -396)" fill="#ff6558" fill-rule="evenodd"/>
  </g>
</svg>
