<svg xmlns="http://www.w3.org/2000/svg" width="173.5" height="50.731" viewBox="0 0 173.5 50.731">
  <g id="Group_1549" data-name="Group 1549" transform="translate(-129 -4055.606)">
    <g id="instagram" transform="translate(129 4055.606)">
      <path id="Path_98" data-name="Path 98" d="M216.71,211.855A4.855,4.855,0,1,1,211.855,207,4.855,4.855,0,0,1,216.71,211.855Zm0,0" transform="translate(-186.489 -186.489)" fill="#f9f9f9"/>
      <path id="Path_99" data-name="Path 99" d="M158.78,138.839a4.823,4.823,0,0,0-2.764-2.764,8.059,8.059,0,0,0-2.7-.5c-1.536-.07-2-.085-5.886-.085s-4.35.015-5.886.085a8.064,8.064,0,0,0-2.7.5,4.825,4.825,0,0,0-2.765,2.764,8.062,8.062,0,0,0-.5,2.7c-.07,1.536-.085,2-.085,5.886s.015,4.35.085,5.886a8.059,8.059,0,0,0,.5,2.7,4.823,4.823,0,0,0,2.764,2.764,8.048,8.048,0,0,0,2.7.5c1.536.07,2,.085,5.885.085s4.35-.015,5.886-.085a8.048,8.048,0,0,0,2.7-.5,4.823,4.823,0,0,0,2.764-2.764,8.066,8.066,0,0,0,.5-2.7c.07-1.536.085-2,.085-5.886s-.015-4.35-.085-5.886A8.049,8.049,0,0,0,158.78,138.839Zm-11.355,16.07a7.479,7.479,0,1,1,7.479-7.479A7.479,7.479,0,0,1,147.426,154.909ZM155.2,141.4a1.748,1.748,0,1,1,1.748-1.748A1.748,1.748,0,0,1,155.2,141.4Zm0,0" transform="translate(-122.06 -122.064)" fill="#060413"/>
      <path id="Path_100" data-name="Path 100" d="M25.366,0A25.366,25.366,0,1,0,50.731,25.366,25.368,25.368,0,0,0,25.366,0ZM39.843,31.371a10.686,10.686,0,0,1-.677,3.536,7.448,7.448,0,0,1-4.26,4.26,10.694,10.694,0,0,1-3.535.677c-1.553.071-2.049.088-6.005.088s-4.452-.017-6.005-.088a10.694,10.694,0,0,1-3.535-.677,7.448,7.448,0,0,1-4.26-4.26,10.684,10.684,0,0,1-.677-3.535c-.072-1.554-.088-2.05-.088-6.005s.017-4.452.088-6.005a10.687,10.687,0,0,1,.677-3.536,7.453,7.453,0,0,1,4.26-4.26,10.7,10.7,0,0,1,3.536-.677c1.553-.071,2.049-.088,6.005-.088s4.452.017,6.005.088a10.7,10.7,0,0,1,3.536.676,7.45,7.45,0,0,1,4.26,4.26,10.685,10.685,0,0,1,.677,3.536c.071,1.553.087,2.049.087,6.005S39.915,29.818,39.843,31.371Zm0,0" fill="#f9f9f9"/>
    </g>
    <g id="twitter" transform="translate(192.975 4055.606)">
      <circle id="Ellipse_28" data-name="Ellipse 28" cx="25.17" cy="25.17" r="25.17" transform="translate(0 0)" fill="#f9f9f9"/>
      <g id="Group_103" data-name="Group 103" transform="translate(11.263 15.267)">
        <path id="Path_101" data-name="Path 101" d="M54.427,36.849a12,12,0,0,1-3.456.946,6.033,6.033,0,0,0,2.646-3.328,12.044,12.044,0,0,1-3.82,1.46,6.021,6.021,0,0,0-10.252,5.488,17.078,17.078,0,0,1-12.4-6.287,6.023,6.023,0,0,0,1.862,8.033,5.974,5.974,0,0,1-2.725-.753c0,.026,0,.051,0,.076a6.02,6.02,0,0,0,4.826,5.9,6.04,6.04,0,0,1-2.717.1,6.023,6.023,0,0,0,5.62,4.178A12.145,12.145,0,0,1,25.1,55.156a17.017,17.017,0,0,0,9.222,2.7c11.066,0,17.118-9.167,17.118-17.118,0-.261-.006-.52-.017-.778a12.2,12.2,0,0,0,3-3.114Z" transform="translate(-25.103 -34.028)" fill="#060413"/>
      </g>
    </g>
    <g id="facebook" transform="translate(251.862 4055.606)">
      <path id="Path_102" data-name="Path 102" d="M25.319,0A25.319,25.319,0,1,1,0,25.319,25.319,25.319,0,0,1,25.319,0Z" transform="translate(0)" fill="#f9f9f9"/>
      <path id="Path_103" data-name="Path 103" d="M118.567,77.367h3.263v-4.82h-3.836v.017c-4.648.165-5.6,2.777-5.684,5.521h-.01v2.407h-3.165v4.72H112.3V97.866h4.77V85.213h3.907l.755-4.72h-4.66V79.038A1.554,1.554,0,0,1,118.567,77.367Z" transform="translate(-90.165 -59.937)" fill="#060413"/>
    </g>
  </g>
</svg>
