<svg id="instagram" xmlns="http://www.w3.org/2000/svg" width="50.731" height="50.731" viewBox="0 0 50.731 50.731">
  <path id="Path_98" data-name="Path 98" d="M216.71,211.855A4.855,4.855,0,1,1,211.855,207,4.855,4.855,0,0,1,216.71,211.855Zm0,0" transform="translate(-186.489 -186.489)" fill="#f9f9f9"/>
  <path id="Path_99" data-name="Path 99" d="M158.78,138.839a4.823,4.823,0,0,0-2.764-2.764,8.059,8.059,0,0,0-2.7-.5c-1.536-.07-2-.085-5.886-.085s-4.35.015-5.886.085a8.064,8.064,0,0,0-2.7.5,4.825,4.825,0,0,0-2.765,2.764,8.062,8.062,0,0,0-.5,2.7c-.07,1.536-.085,2-.085,5.886s.015,4.35.085,5.886a8.059,8.059,0,0,0,.5,2.7,4.823,4.823,0,0,0,2.764,2.764,8.048,8.048,0,0,0,2.7.5c1.536.07,2,.085,5.885.085s4.35-.015,5.886-.085a8.048,8.048,0,0,0,2.7-.5,4.823,4.823,0,0,0,2.764-2.764,8.066,8.066,0,0,0,.5-2.7c.07-1.536.085-2,.085-5.886s-.015-4.35-.085-5.886A8.049,8.049,0,0,0,158.78,138.839Zm-11.355,16.07a7.479,7.479,0,1,1,7.479-7.479A7.479,7.479,0,0,1,147.426,154.909ZM155.2,141.4a1.748,1.748,0,1,1,1.748-1.748A1.748,1.748,0,0,1,155.2,141.4Zm0,0" transform="translate(-122.06 -122.064)" fill="#060413"/>
  <path id="Path_100" data-name="Path 100" d="M25.366,0A25.366,25.366,0,1,0,50.731,25.366,25.368,25.368,0,0,0,25.366,0ZM39.843,31.371a10.686,10.686,0,0,1-.677,3.536,7.448,7.448,0,0,1-4.26,4.26,10.694,10.694,0,0,1-3.535.677c-1.553.071-2.049.088-6.005.088s-4.452-.017-6.005-.088a10.694,10.694,0,0,1-3.535-.677,7.448,7.448,0,0,1-4.26-4.26,10.684,10.684,0,0,1-.677-3.535c-.072-1.554-.088-2.05-.088-6.005s.017-4.452.088-6.005a10.687,10.687,0,0,1,.677-3.536,7.453,7.453,0,0,1,4.26-4.26,10.7,10.7,0,0,1,3.536-.677c1.553-.071,2.049-.088,6.005-.088s4.452.017,6.005.088a10.7,10.7,0,0,1,3.536.676,7.45,7.45,0,0,1,4.26,4.26,10.685,10.685,0,0,1,.677,3.536c.071,1.553.087,2.049.087,6.005S39.915,29.818,39.843,31.371Zm0,0" fill="#f9f9f9"/>
</svg>
