<svg id="laughing-line" xmlns="http://www.w3.org/2000/svg" width="118" height="118" viewBox="0 0 118 118">
  <path id="Path_105" data-name="Path 105" d="M74.044,45.224a2.542,2.542,0,1,1-4.879-1.431A14.288,14.288,0,0,1,73.9,36.571a13,13,0,0,1,7.414-2.843A13.745,13.745,0,0,1,89.2,35.716a17.128,17.128,0,0,1,6.675,7.731,2.544,2.544,0,1,1-4.629,2.113,12.142,12.142,0,0,0-4.667-5.484,8.768,8.768,0,0,0-4.994-1.268,8,8,0,0,0-4.523,1.719,9.391,9.391,0,0,0-3.016,4.7Zm23.462,4.888c-.759,48.594-76.531,48.594-77.3,0,23.452,28.456,48.806,32.432,77.3,0ZM59,0h0V.01A58.954,58.954,0,0,1,117.99,59H118V59h-.01A58.954,58.954,0,0,1,59,117.99V118H59v-.01A58.938,58.938,0,0,1,.019,59H0V59H.019A58.971,58.971,0,0,1,59,.01V0Zm0,7.52v.019H59L59,7.52A51.511,51.511,0,0,0,7.52,59h.01V59H7.52A51.528,51.528,0,0,0,59,110.49v-.019H59v.019A51.511,51.511,0,0,0,110.48,59h-.01V59h.019A51.511,51.511,0,0,0,59,7.52Zm-32.364,37.7a2.542,2.542,0,1,1-4.879-1.431A14.288,14.288,0,0,1,26.5,36.571a13.088,13.088,0,0,1,7.414-2.843A13.745,13.745,0,0,1,41.8,35.716a17.128,17.128,0,0,1,6.675,7.731,2.544,2.544,0,1,1-4.629,2.113,12.085,12.085,0,0,0-4.667-5.484,8.75,8.75,0,0,0-4.994-1.268,8,8,0,0,0-4.523,1.719,9.455,9.455,0,0,0-3.016,4.7Z" fill="#ff6558"/>
</svg>
