<svg xmlns="http://www.w3.org/2000/svg" width="118" height="118" viewBox="0 0 118 118">
  <g id="shield-lock-line" transform="translate(-0.001)">
    <path id="Path_104" data-name="Path 104" d="M58.8,0c22,12.69,41.879,18.694,58.938,17.275C120.715,72.105,98.461,104.486,59.026,118,20.943,105.351-1.583,74.364.088,16.443,20.113,17.4,39.76,13.457,58.8,0ZM43.753,53.3h1.518V50.1a12.557,12.557,0,0,1,4.007-9.117,14.253,14.253,0,0,1,19.448,0A12.557,12.557,0,0,1,72.734,50.1v3.2h1.518a2.153,2.153,0,0,1,2.241,2.039V76.881a2.153,2.153,0,0,1-2.241,2.039h-30.5a2.153,2.153,0,0,1-2.241-2.039V55.338A2.152,2.152,0,0,1,43.753,53.3Zm5.76,0H68.49V50.1a8.87,8.87,0,0,0-2.814-6.448,9.756,9.756,0,0,0-13.349,0A8.867,8.867,0,0,0,49.514,50.1v3.2ZM57.163,67.49l-2.418,5.762h8.513l-2.239-5.84a3.986,3.986,0,0,0,2.394-3.568,4.429,4.429,0,0,0-8.82,0,4.011,4.011,0,0,0,2.571,3.647ZM58.821,6.775C78.3,18.007,95.892,23.323,110.992,22.065c2.636,48.534-17.061,77.2-51.967,89.159-33.71-11.2-53.652-38.624-52.172-89.9,17.727.845,35.117-2.642,51.968-14.554Z" transform="translate(0)" fill="#ff6558" fill-rule="evenodd"/>
  </g>
</svg>
