<svg id="twitter" xmlns="http://www.w3.org/2000/svg" width="50.339" height="50.339" viewBox="0 0 50.339 50.339">
  <circle id="Ellipse_28" data-name="Ellipse 28" cx="25.17" cy="25.17" r="25.17" transform="translate(0 0)" fill="#f9f9f9"/>
  <g id="Group_103" data-name="Group 103" transform="translate(11.263 15.267)">
    <path id="Path_101" data-name="Path 101" d="M54.427,36.849a12,12,0,0,1-3.456.946,6.033,6.033,0,0,0,2.646-3.328,12.044,12.044,0,0,1-3.82,1.46,6.021,6.021,0,0,0-10.252,5.488,17.078,17.078,0,0,1-12.4-6.287,6.023,6.023,0,0,0,1.862,8.033,5.974,5.974,0,0,1-2.725-.753c0,.026,0,.051,0,.076a6.02,6.02,0,0,0,4.826,5.9,6.04,6.04,0,0,1-2.717.1,6.023,6.023,0,0,0,5.62,4.178A12.145,12.145,0,0,1,25.1,55.156a17.017,17.017,0,0,0,9.222,2.7c11.066,0,17.118-9.167,17.118-17.118,0-.261-.006-.52-.017-.778a12.2,12.2,0,0,0,3-3.114Z" transform="translate(-25.103 -34.028)" fill="#060413"/>
  </g>
</svg>
